<?xml version="1.0" standalone="no"?>
  <svg version="1.1"
      baseProfile="full"
     width="889px"
      height="605px"
     
      xmlns="http://www.w3.org/2000/svg"
      >
      <g xmlns="http://www.w3.org/2000/svg" xmlns:xlink="http://www.w3.org/1999/xlink">
      <g transform="rotate(0 409 264.99734375)"><svg xmlns:dc="http://purl.org/dc/elements/1.1/" xmlns:cc="http://creativecommons.org/ns#" xmlns:rdf="http://www.w3.org/1999/02/22-rdf-syntax-ns#" xmlns:svg="http://www.w3.org/2000/svg" xmlns="http://www.w3.org/2000/svg" xmlns:sodipodi="http://sodipodi.sourceforge.net/DTD/sodipodi-0.dtd" xmlns:inkscape="http://www.inkscape.org/namespaces/inkscape" version="1.1" id="Layer_1" x="114.5" y="30.97" viewBox="108.35000610351562 176.5500030517578 783.2999877929688 646.9000244140625" width="589" class="withFill injected-svg" height="468.0546875" style="enable-background:new 0 0 1000 1000;" xml:space="preserve" data-src="/static/media/146.svg" xmlns:xlink="http://www.w3.org/1999/xlink" fill="rgb(141, 153, 170)" opacity="1" preserveAspectRatio="none"><style type="text/css" id="style3">
	.st0{fill:#231F20;}
	.st1{fill:#B9921D;}
</style><switch id="switch5" transform="translate(-42.95,35.75)"><g id="g7"><g id="g9"><g id="g11"><g id="g13"><path class="st0" d="m 779.8,696.9 -465.2,0 0,-465.2 465.2,0 0,465.2 z m -444.4,-20.8 423.6,0 0,-423.6 -423.6,0 0,423.6 z" id="path15-5931" inkscape:connector-curvature="0" style="fill: rgb(141, 153, 170);"></path></g></g><g id="g17"><polygon class="st1" points="568,252.5 759,443.5 759,425.1 586.4,252.5 " id="polygon19" style="fill:#b9921d"></polygon><polygon class="st1" points="798.1,464.3 779.8,445.9 779.8,482.6 " id="polygon21" style="fill:#b9921d"></polygon><polygon class="st1" points="759,503.4 759,485 567.9,676.2 586.3,676.2 " id="polygon23" style="fill:#b9921d"></polygon><polygon class="st1" points="169.6,464.3 474.7,159.2 547,231.6 565.4,231.6 474.7,140.8 151.3,464.3 474.7,787.7 565.5,697 547.1,697 474.7,769.3 " id="polygon25" style="fill:#b9921d"></polygon></g><g id="g27"><polygon class="st1" points="306.1,464.3 611.2,159.2 683.7,231.7 702,231.7 611.2,140.8 287.7,464.3 611.2,787.7 702,696.9 683.6,696.9 611.2,769.3 " id="polygon29" style="fill:#b9921d"></polygon><polygon class="st1" points="759,639.9 759,621.5 704.4,676.1 722.8,676.1 " id="polygon31" style="fill:#b9921d"></polygon><polygon class="st1" points="780.5,310.1 780.5,328.5 916.2,464.3 780.5,600.1 780.5,618.4 934.6,464.3 " id="polygon33" style="fill:#b9921d"></polygon><polygon class="st1" points="704.5,252.5 759,307.1 759,288.7 722.9,252.5 " id="polygon35" style="fill:#b9921d"></polygon></g></g></g></switch></svg></g><g transform="rotate(0 411.5999594873098 263.3693230195246)"><svg id="1607399431028" opacity="1" fill="rgb(10, 20, 30)" viewBox="0 -64.80000305175781 20.15999984741211 64.87000274658203" width="60.63991897461966" preserveAspectRatio="none" height="239.5786460390491" x="381.28" y="143.58"><path id="textPath" d="M2.74-57.96C4.18-58.39 5.69-58.68 7.20-58.82L7.20-1.73C7.20-0.79 7.92 0 8.86 0.07L10.08 0.07C10.58 0.07 11.02 0.07 11.52 0C12.38 0 12.96-0.79 12.96-1.73L12.96-58.82C14.47-58.68 15.91-58.39 17.42-57.96C18.86-57.53 20.16-58.39 20.16-59.90L20.16-61.92C20.16-62.64 19.73-63.29 19.01-63.50C16.06-64.37 13.03-64.80 10.08-64.80C7.06-64.80 4.03-64.37 1.15-63.50C0.43-63.29 0-62.64 0-61.92L0-59.98C0-58.46 1.30-57.53 2.74-57.96Z" style="pointer-events: bounding-box; cursor: move;"></path></svg></g><g transform="rotate(0 338.80687844972493 262.9135952887191)"><svg id="1607399527823" opacity="1" fill="rgb(10, 20, 30)" viewBox="0 -64.80000305175781 31.31999969482422 64.7300033569336" width="74.91375689944982" preserveAspectRatio="none" height="223.9871905774382" x="301.35" y="150.92"><path id="textPath" d="M31.32-0.07L31.32-64.80C29.38-64.73 27.43-64.51 25.56-64.08C10.94-60.98 0-47.95 0-32.40C0-26.93 1.37-21.74 3.82-17.21L8.78-20.09C6.84-23.76 5.76-28.01 5.76-32.40C5.76-39.38 8.42-45.72 12.82-50.47L12.82-6.62C14.54-5.33 16.49-4.10 18.58-3.17L18.58-55.22C20.74-56.52 23.04-57.53 25.56-58.18L25.56-0.79C27.43-0.36 29.38-0.14 31.32-0.07Z" style="pointer-events: bounding-box; cursor: move;"></path></svg></g><g transform="rotate(0 509.6927291554418 263.0838388671875)"><svg id="1607399619005" opacity="1" fill="rgb(10, 20, 30)" viewBox="22.68000030517578 -64.80000305175781 31.31999969482422 64.7300033569336" width="128.4654583108836" preserveAspectRatio="none" height="221.647677734375" x="445.46" y="152.26"><path id="textPath" d="M22.68-0.07C24.62-0.14 26.57-0.36 28.44-0.79C43.06-3.89 54.00-16.92 54.00-32.40C54.00-32.98 53.93-33.55 53.93-34.13L51.05-35.42L52.06-36.86L53.35-38.81C50.83-51.48 40.97-61.42 28.44-64.08C26.57-64.51 24.62-64.73 22.68-64.80ZM28.44-26.64L28.44-58.18C37.44-55.80 44.57-48.82 47.16-39.96L44.42-35.93ZM28.44-6.70L28.44-20.02L47.23-30.89L48.17-30.46C47.30-19.01 39.17-9.50 28.44-6.70Z" style="pointer-events: bounding-box; cursor: move;"></path></svg></g>
      </g>
  </svg>